<?xml version="1.0" encoding="utf-8"?>
<!-- Generator: Adobe Illustrator 23.0.2, SVG Export Plug-In . SVG Version: 6.00 Build 0)  -->
<svg version="1.1" id="Warstwa_1" xmlns="http://www.w3.org/2000/svg" xmlns:xlink="http://www.w3.org/1999/xlink" x="0px" y="0px"
	 viewBox="0 0 100 100" style="enable-background:new 0 0 100 100;" xml:space="preserve">
<style type="text/css">
	.st0{fill:#FFFFFF;}
	.st1{fill:url(#XMLID_2_);}
	.st2{fill:url(#XMLID_3_);}
	.st3{fill:url(#XMLID_4_);}
	.st4{fill:url(#XMLID_5_);}
	.st5{fill:url(#XMLID_6_);}
	.st6{fill:url(#XMLID_7_);}
	.st7{fill:url(#XMLID_10_);}
	.st8{fill:url(#XMLID_11_);}
</style>
<circle class="st0" cx="50" cy="50" r="37"/>
<g id="XMLID_8_">
	<linearGradient id="XMLID_2_" gradientUnits="userSpaceOnUse" x1="-5.9417" y1="46.7598" x2="89.8945" y2="78.1899">
		<stop  offset="0.2151" style="stop-color:#32E7B6"/>
		<stop  offset="0.9839" style="stop-color:#FF40A7"/>
	</linearGradient>
	<polygon id="XMLID_9_" class="st1" points="63.18,57.84 51.2,69.81 51.2,77.09 63.18,65.11 	"/>
	<linearGradient id="XMLID_3_" gradientUnits="userSpaceOnUse" x1="1.281" y1="24.7364" x2="97.1167" y2="56.1664">
		<stop  offset="0.2151" style="stop-color:#32E7B6"/>
		<stop  offset="0.9839" style="stop-color:#FF40A7"/>
	</linearGradient>
	<polygon id="XMLID_40_" class="st2" points="72.67,55.57 78.39,49.89 78.39,42.61 72.67,48.29 	"/>
	<linearGradient id="XMLID_4_" gradientUnits="userSpaceOnUse" x1="4.9691" y1="13.4906" x2="100.8054" y2="44.9208">
		<stop  offset="0.2151" style="stop-color:#32E7B6"/>
		<stop  offset="0.9839" style="stop-color:#FF40A7"/>
	</linearGradient>
	<polygon id="XMLID_41_" class="st3" points="77.75,38.89 66.34,27.48 66.34,34.74 74.26,42.35 	"/>
	<linearGradient id="XMLID_5_" gradientUnits="userSpaceOnUse" x1="1.5694" y1="23.8568" x2="97.4057" y2="55.287">
		<stop  offset="0.2151" style="stop-color:#32E7B6"/>
		<stop  offset="0.9839" style="stop-color:#FF40A7"/>
	</linearGradient>
	<polygon id="XMLID_42_" class="st4" points="36.06,34.76 48.11,46.8 48.11,39.53 36.06,27.48 	"/>
	<linearGradient id="XMLID_6_" gradientUnits="userSpaceOnUse" x1="-5.8912" y1="46.6057" x2="89.9451" y2="78.0358">
		<stop  offset="0.2151" style="stop-color:#32E7B6"/>
		<stop  offset="0.9839" style="stop-color:#FF40A7"/>
	</linearGradient>
	<polygon id="XMLID_43_" class="st5" points="20.92,49.9 48.11,77.09 48.11,69.81 20.92,42.62 	"/>
	<linearGradient id="XMLID_7_" gradientUnits="userSpaceOnUse" x1="0.94" y1="25.7762" x2="96.7762" y2="57.2064">
		<stop  offset="0.2151" style="stop-color:#32E7B6"/>
		<stop  offset="0.9839" style="stop-color:#FF40A7"/>
	</linearGradient>
	<polygon id="XMLID_44_" class="st6" points="25.19,42.53 32.96,34.76 32.96,27.48 21.56,38.89 	"/>
	<linearGradient id="XMLID_10_" gradientUnits="userSpaceOnUse" x1="-1.4686" y1="33.1205" x2="94.3676" y2="64.5507">
		<stop  offset="0.2151" style="stop-color:#32E7B6"/>
		<stop  offset="0.9839" style="stop-color:#FF40A7"/>
	</linearGradient>
	<path id="XMLID_47_" class="st7" d="M50,0C22.39,0,0,22.39,0,50s22.39,50,50,50s50-22.39,50-50S77.61,0,50,0z M81.48,50.17
		c0,0.06-0.01,0.12-0.02,0.18c0.06,0.46-0.09,0.94-0.44,1.29l-8.81,8.74c-0.02,0.02-0.04,0.03-0.05,0.04
		c-0.06,0.05-0.12,0.1-0.18,0.15c-0.04,0.03-0.08,0.05-0.12,0.07c-0.05,0.03-0.09,0.05-0.14,0.07c-0.05,0.02-0.11,0.03-0.16,0.05
		c-0.04,0.01-0.08,0.03-0.13,0.04c-0.1,0.02-0.2,0.03-0.3,0.03c-0.1,0-0.2-0.01-0.3-0.03c-0.05-0.01-0.09-0.03-0.14-0.04
		c-0.05-0.02-0.1-0.03-0.15-0.05c-0.05-0.02-0.1-0.05-0.16-0.08c-0.04-0.02-0.08-0.04-0.11-0.06c-0.08-0.06-0.16-0.12-0.24-0.19
		c0,0,0,0,0,0c-0.02-0.02-0.03-0.03-0.04-0.05c-0.05-0.06-0.11-0.12-0.15-0.18c-0.03-0.04-0.05-0.08-0.07-0.13
		c-0.03-0.05-0.05-0.09-0.07-0.14c-0.02-0.05-0.03-0.1-0.05-0.16c-0.01-0.04-0.03-0.09-0.04-0.13c-0.02-0.08-0.02-0.16-0.02-0.24
		c0-0.02-0.01-0.04-0.01-0.06v-0.01v0l0-11.63c0,0,0,0,0,0c0-0.1,0.01-0.2,0.03-0.3c0.01-0.04,0.02-0.08,0.04-0.12
		c0.02-0.06,0.03-0.11,0.05-0.17c0.02-0.05,0.05-0.1,0.08-0.15c0.02-0.04,0.04-0.08,0.06-0.12c0.06-0.08,0.12-0.16,0.19-0.24
		c0,0,0,0,0,0l2.03-2.01l-7.25-6.97L50.75,51.63c-0.3,0.3-0.7,0.45-1.09,0.45c-0.4,0-0.79-0.15-1.09-0.45L34.51,37.58l-7.13,7.13
		l22.27,22.27l13.97-13.97c0.07-0.07,0.15-0.14,0.24-0.19c0.04-0.02,0.08-0.04,0.12-0.06c0.05-0.03,0.1-0.06,0.15-0.08
		c0.05-0.02,0.1-0.03,0.15-0.05c0.04-0.01,0.09-0.03,0.13-0.04c0.2-0.04,0.41-0.04,0.61,0c0.05,0.01,0.09,0.03,0.13,0.04
		c0.05,0.02,0.1,0.03,0.15,0.05c0.05,0.02,0.1,0.05,0.15,0.08c0.04,0.02,0.08,0.04,0.12,0.06c0.17,0.11,0.32,0.26,0.43,0.43
		c0.02,0.04,0.04,0.07,0.06,0.11c0.03,0.05,0.06,0.1,0.08,0.15c0.02,0.05,0.03,0.1,0.05,0.15c0.01,0.05,0.03,0.09,0.04,0.14
		c0.02,0.1,0.03,0.2,0.03,0.3l0,11.65c0,0.04-0.01,0.08-0.01,0.12c0,0.06-0.01,0.12-0.02,0.18c-0.01,0.06-0.03,0.12-0.05,0.18
		c-0.01,0.04-0.02,0.07-0.03,0.11c-0.03,0.07-0.06,0.13-0.1,0.19c-0.01,0.02-0.02,0.05-0.04,0.07c-0.06,0.09-0.12,0.17-0.2,0.24
		L50.75,81.92c-0.3,0.3-0.7,0.45-1.09,0.45c-0.4,0-0.79-0.15-1.09-0.45L18.28,51.63c-0.35-0.35-0.49-0.82-0.44-1.28
		c-0.01-0.06-0.02-0.12-0.02-0.18l0-11.28c0-0.1,0.01-0.2,0.03-0.3c0.01-0.05,0.03-0.09,0.04-0.13c0.02-0.05,0.03-0.1,0.05-0.15
		c0.02-0.05,0.05-0.1,0.08-0.15c0.02-0.04,0.04-0.08,0.06-0.11c0.06-0.09,0.12-0.17,0.19-0.24l15.14-15.14
		c0.07-0.07,0.15-0.14,0.24-0.19c0.04-0.02,0.08-0.04,0.12-0.06c0.05-0.03,0.1-0.06,0.15-0.08c0.05-0.02,0.1-0.03,0.15-0.05
		c0.04-0.01,0.09-0.03,0.13-0.04c0.2-0.04,0.41-0.04,0.61,0c0.05,0.01,0.09,0.03,0.13,0.04c0.05,0.02,0.1,0.03,0.15,0.05
		c0.05,0.02,0.1,0.05,0.15,0.08c0.04,0.02,0.08,0.04,0.12,0.06c0.09,0.06,0.17,0.12,0.24,0.19L49.65,36.7L63.7,22.66
		c0.07-0.07,0.15-0.14,0.24-0.19c0.04-0.02,0.08-0.04,0.12-0.06c0.05-0.03,0.1-0.06,0.15-0.08c0.05-0.02,0.1-0.03,0.15-0.05
		c0.04-0.01,0.09-0.03,0.13-0.04c0.2-0.04,0.41-0.04,0.61,0c0.05,0.01,0.09,0.03,0.13,0.04c0.05,0.02,0.1,0.03,0.15,0.05
		c0.05,0.02,0.1,0.05,0.15,0.08c0.04,0.02,0.08,0.04,0.12,0.06c0.09,0.06,0.17,0.12,0.24,0.19l15.14,15.14
		c0.07,0.07,0.14,0.15,0.19,0.24c0.01,0.02,0.02,0.05,0.04,0.07c0.04,0.06,0.08,0.13,0.11,0.2c0.01,0.03,0.02,0.07,0.03,0.1
		c0.02,0.06,0.04,0.12,0.06,0.19c0.02,0.08,0.02,0.15,0.02,0.23c0,0.03,0.01,0.05,0.01,0.07L81.48,50.17z"/>
	<linearGradient id="XMLID_11_" gradientUnits="userSpaceOnUse" x1="3.0402" y1="19.3723" x2="98.8764" y2="50.8025">
		<stop  offset="0.2151" style="stop-color:#32E7B6"/>
		<stop  offset="0.9839" style="stop-color:#FF40A7"/>
	</linearGradient>
	<polygon id="XMLID_48_" class="st8" points="51.2,46.8 63.25,34.76 63.25,27.48 51.2,39.53 	"/>
</g>
</svg>
